<?xml version="1.0" encoding="UTF-8"?>
<!-- Created with Inkscape (http://www.inkscape.org/) -->
<svg width="9.525mm" height="9.525mm" version="1.1" viewBox="0 0 9.525 9.525" xml:space="preserve" xmlns="http://www.w3.org/2000/svg"><g transform="translate(-81.286 -109.47)"><g transform="translate(-17.361,-96.576)" stroke="#000"><g fill="none"><path d="m137.5 159.67v21.393h-59.763v-59.825h59.763v21.439" stroke-width="6.6146"/><g stroke-width="7.6236"><path transform="matrix(.85848 0 0 .8769 15.234 20.277)" d="m107.65 129.17v41.304"/><path transform="matrix(.85848 0 0 .8769 15.234 20.277)" d="m107.65 131.82h-19.329v38.658"/><path transform="matrix(.85848 0 0 .8769 15.234 20.277)" d="m107.65 131.82h19.329v38.658"/></g></g><g stroke-width="5.2917"><g transform="translate(-.47713)"><path d="m88.937 120.97v-13.024"/><path d="m101.73 120.97v-13.024"/><path d="m114.52 120.97v-13.024"/><path d="m127.31 120.97v-13.024"/></g><g transform="translate(-.47713 73.113)"><path d="m88.937 120.97v-13.024"/><path d="m101.73 120.97v-13.024"/><path d="m114.52 120.97v-13.024"/><path d="m127.31 120.97v-13.024"/></g><g transform="rotate(90,71.328,114.35)"><path d="m88.937 120.97v-13.024"/><path d="m101.73 120.97v-13.024"/><path d="m114.52 120.97v-13.024"/><path d="m127.31 120.97v-13.024"/></g></g></g><g transform="matrix(.09 0 0 .09 77.971 103.62)"><rect x="36.83" y="65.012" width="105.83" height="105.83" rx="16.002" ry="16.002" fill="#353640" stroke="#000" stroke-width="5.5703"/><g transform="matrix(1.107 0 0 1.107 -26.893 -49.238)" fill="none" stroke="#8bd5ca"><path d="m137.5 159.67v21.393h-59.763v-59.825h59.763v21.439" stroke-width="6.29"/><g stroke-width="7.2495"><path transform="matrix(.85848 0 0 .8769 15.234 20.277)" d="m107.65 129.17v41.304"/><path transform="matrix(.85848 0 0 .8769 15.234 20.277)" d="m107.65 131.82h-19.329v38.658"/><path transform="matrix(.85848 0 0 .8769 15.234 20.277)" d="m107.65 131.82h19.329v38.658"/></g><g stroke-width="5.032"><g transform="translate(-.47713)"><path d="m88.937 120.97v-13.024"/><path d="m101.73 120.97v-13.024"/><path d="m114.52 120.97v-13.024"/><path d="m127.31 120.97v-13.024"/></g><g transform="translate(-.47713 73.113)"><path d="m88.937 120.97v-13.024"/><path d="m101.73 120.97v-13.024"/><path d="m114.52 120.97v-13.024"/><path d="m127.31 120.97v-13.024"/></g><g transform="rotate(90,71.328,114.35)"><path d="m88.937 120.97v-13.024"/><path d="m101.73 120.97v-13.024"/><path d="m114.52 120.97v-13.024"/><path d="m127.31 120.97v-13.024"/></g></g></g></g></g></svg>
